<?xml version="1.0" encoding="utf-8"?>
<!-- Generator: Adobe Illustrator 24.0.0, SVG Export Plug-In . SVG Version: 6.00 Build 0)  -->
<svg version="1.1" id="Layer_1" xmlns="http://www.w3.org/2000/svg" xmlns:xlink="http://www.w3.org/1999/xlink" x="0px" y="0px"
	 viewBox="0 0 356 263.6" style="enable-background:new 0 0 356 263.6;" xml:space="preserve">
<style type="text/css">
	.st0{fill:#FFFFFF;}
	.st1{fill:#FEC20F;}
</style>
<g>
	<path class="st0" d="M165.8,18.4l-13.9,78.4c-8.5-14.3-26.1-24.3-47.3-24.3c-43.3,0-77,40.2-77,95.5c0,45.3,24.5,72.2,61.8,72.2
		c19.2,0,34.9-10.1,44-23.3l-3.5,19h38.1l3.9-22.2c-9.4-12.3-14.6-28.3-14.6-46.9c0-33.6,13.7-61.9,36.7-78.6l12.3-69.8
		C206.2,18.4,165.8,18.4,165.8,18.4z M101.4,204.8c-20.5,0-32.5-14.8-32.5-39.4c0-30.5,17.8-57.7,44.1-57.7
		c19.8,0,30.8,13.2,30.8,37.9C143.9,175.4,127.2,204.8,101.4,204.8z"/>
	<path class="st0" d="M163.3,168.6c0-57.2,37.3-100.3,93-100.3c46.4,0,77,31.3,77,77.9c0,57.2-37.1,100.3-93,100.3
		C194,246.6,163.3,215.2,163.3,168.6z M289.3,147.7c0-25.4-13-41.9-34.9-41.9c-29.9,0-47.1,30.4-47.1,61.4c0,25.6,13,41.9,34.9,41.9
		C271.9,209.1,289.3,178.9,289.3,147.7z"/>
	<path class="st1" d="M189.9,113.4c-0.6-0.7-1.1-1.4-1.5-1.8c-0.1-0.2-0.3-0.4-0.2-0.6c0.2-3.7,0.6-7.5,0.6-11.2
		c0.1-1-0.1-1.9-0.7-2.8c-1.1-1.7-2.9-1.8-4.8-1.7c-1.9,0.1-3.9,0.2-5.8,0.3c-1,0-2,0.1-3,0.1c-0.6,0-1.6,0.3-2.1-0.3
		c-1.1-1.1-2.3-2.2-3.3-3.4c-0.7-0.9-0.6-2.3,0.9-2.4c3.1,0,6.3-0.3,9.4-0.5c4.7-0.3,9.4-0.5,14-0.8c0.7,0,1.5,0,2,0.4
		c0.6,0.6,0.4,1.5,0.4,2.2c-0.1,1.1-0.1,2.2-0.2,3.3c-0.2,2.2-0.3,4.5-0.5,6.7c-0.3,4.4-0.6,8.8-0.9,13.1c0,0.6-0.4,1-0.9,1.2
		C192.1,115.7,190.9,114.6,189.9,113.4z"/>
</g>
</svg>
