<svg width="20" height="30" viewBox="0 0 20 30" fill="none" xmlns="http://www.w3.org/2000/svg">
<path d="M16.7746 26.681C16.8057 25.9196 16.7792 25.1923 16.8141 24.7292C16.8308 24.5501 16.7584 24.3256 16.6445 24.1955C14.6293 21.8991 12.4426 19.6936 10.5457 17.3058C10.0067 16.694 9.62608 16.0014 9.55789 15.1817C9.41496 13.5473 10.5689 12.5313 11.8068 11.6478C13.1222 10.7148 14.4441 9.77681 15.7645 8.85031C16.4419 8.36862 17.1244 7.89337 17.7952 7.41676C18.2375 7.10624 18.9741 6.76577 19.0381 6.16587C19.1749 4.897 19.4198 3.61736 19.4449 2.34131C19.4657 1.38012 18.6251 0.575473 17.6645 1.23439C15.6084 2.82266 13.3404 4.21105 11.2039 5.68483C7.99658 7.89229 4.78927 10.0997 1.58195 12.3072C1.10822 12.6316 0.589259 13.0324 0.517904 13.5964C0.438556 14.2705 1.00237 14.7801 1.41358 15.231C2.02344 15.8919 2.63186 16.5643 3.24173 17.2253C4.49214 18.5858 5.74255 19.9463 6.99953 21.3017C9.44923 23.9583 11.8675 26.6288 14.3041 29.2956C14.6423 29.6679 15.0468 29.7501 15.4906 29.6149C16.4966 29.3468 16.7181 27.971 16.7746 26.681Z" fill="white"/>
</svg>
