<svg width="16" height="16" viewBox="0 0 16 16" fill="none" xmlns="http://www.w3.org/2000/svg">
<path d="M8 3.75C6.96591 3.75 6.125 4.59091 6.125 5.625C6.125 6.66403 6.96441 7.5 8 7.5C9.05416 7.5 9.875 6.64828 9.875 5.625C9.875 4.59091 9.03409 3.75 8 3.75Z" fill="#1B2A55"/>
<path d="M8 0C4.89819 0 2.375 2.52319 2.375 5.625C2.375 6.67281 2.66522 7.69547 3.21409 8.58263L7.67959 15.7782C7.86475 16.0773 8.30131 16.0727 8.48069 15.7718L12.8322 8.50663C13.3503 7.63825 13.625 6.64169 13.625 5.625C13.625 2.52319 11.1018 0 8 0ZM8 8.44375C6.42672 8.44375 5.18125 7.16316 5.18125 5.625C5.18125 4.07409 6.44909 2.80625 8 2.80625C9.55091 2.80625 10.8188 4.07409 10.8188 5.625C10.8188 7.14959 9.59003 8.44375 8 8.44375Z" fill="#1B2A55"/>
</svg>
