<svg width="14" height="20" viewBox="0 0 14 20" fill="none" xmlns="http://www.w3.org/2000/svg">
<path d="M2.68946 17.4051C2.66892 16.9029 2.68643 16.4233 2.66342 16.1178C2.65239 15.9997 2.70011 15.8516 2.77526 15.7658C4.10433 14.2512 5.54654 12.7966 6.79763 11.2218C7.15314 10.8183 7.40417 10.3615 7.44914 9.82083C7.54342 8.7429 6.78235 8.07283 5.96588 7.49009C5.09837 6.87479 4.22652 6.25613 3.35564 5.64507C2.90889 5.32738 2.45877 5.01394 2.01635 4.69959C1.72461 4.49479 1.23883 4.27024 1.19659 3.87458C1.10636 3.03772 0.944856 2.19375 0.928295 1.35214C0.91455 0.718207 1.46897 0.187509 2.10251 0.622091C3.45862 1.66961 4.95444 2.58531 6.36354 3.55732C8.47889 5.01322 10.5942 6.46911 12.7096 7.925C13.022 8.13895 13.3643 8.40334 13.4114 8.77533C13.4637 9.21988 13.0918 9.55596 12.8206 9.85335C12.4184 10.2893 12.0171 10.7328 11.6149 11.1687C10.7902 12.066 9.9655 12.9633 9.13648 13.8572C7.52081 15.6094 5.92585 17.3707 4.31885 19.1295C4.09581 19.375 3.82902 19.4292 3.53628 19.3401C2.87279 19.1632 2.72672 18.2558 2.68946 17.4051Z" fill="#A3A3A3"/>
</svg>
