<?xml version="1.0" encoding="utf-8"?>
<!-- Generator: Adobe Illustrator 23.0.1, SVG Export Plug-In . SVG Version: 6.00 Build 0)  -->
<svg version="1.1" id="Layer_1" xmlns="http://www.w3.org/2000/svg" xmlns:xlink="http://www.w3.org/1999/xlink" x="0px" y="0px"
	 viewBox="0 0 766.98 341.11" style="enable-background:new 0 0 766.98 341.11;" xml:space="preserve">
<style type="text/css">
	.st0{fill:#1B2A55;}
	.st1{fill:#FEC20F;}
</style>
<g>
	<g>
		<g>
			<g>
				<path class="st0" d="M176.76,193.11H93.69l-24.17,47.43H22.09l115.85-217.5h47.58l44.86,217.5h-44.71L176.76,193.11z
					 M169.96,157.01l-15.71-82.92l-42.14,82.92H169.96z"/>
				<path class="st0" d="M359.32,23.03l-13.9,78.4c-8.47-14.35-26.13-24.32-47.28-24.32c-43.35,0-77.02,40.18-77.02,95.46
					c0,45.31,24.47,72.2,61.78,72.2c19.18,0,34.89-10.12,43.95-23.26l-3.46,19.03h38.06l3.93-22.24
					c-9.35-12.28-14.56-28.31-14.56-46.94c0-33.57,13.66-61.95,36.68-78.55l12.3-69.78H359.32z M294.97,209.43
					c-20.54,0-32.47-14.81-32.47-39.43c0-30.51,17.83-57.7,44.11-57.7c19.78,0,30.82,13.15,30.82,37.92
					C337.42,179.97,320.8,209.43,294.97,209.43z"/>
				<path class="st0" d="M356.86,173.22c0-57.2,37.27-100.25,93.02-100.25c46.43,0,76.96,31.33,76.96,77.92
					c0,57.2-37.11,100.25-93.02,100.25C387.55,251.14,356.86,219.81,356.86,173.22z M482.82,152.33c0-25.38-13.01-41.93-34.86-41.93
					c-29.88,0-47.07,30.37-47.07,61.37c0,25.55,13.01,41.93,34.86,41.93C465.47,213.71,482.82,183.5,482.82,152.33z"/>
				<path class="st0" d="M650.12,81.43c-5.89-1.43-11.83-2.54-17.85-3.26c-2.74-0.33-5.5-0.61-8.26-0.61
					c-17.67,0-35.34,8.91-45.61,25.69l3.78-22.06h-39.12l-28.11,159.35h40.48l12.54-70.83c6.04-34.13,24.63-55.14,48.93-55.14
					c4.41,0,9.96,0.75,14.67,1.81l-12.95-14.35c3.69-3.76,7.72-7.18,12.07-10.17c2.92-2,5.98-3.79,9.08-5.5
					c1.57-0.86,3.15-1.7,4.73-2.54C646.33,82.85,648.09,81.88,650.12,81.43z"/>
				<path class="st0" d="M752.71,128.82c0,4.68-0.45,9.21-1.36,14.35l-17.07,96.97h-39.12l2.42-13.75
					c-9.97,11.63-25.22,17.97-43.35,17.97c-29.6,0-48.94-18.58-48.94-46.67c0-34.29,28.24-53.77,78.09-53.77h27.34l0.3-1.81
					c0.6-3.32,0.75-5.74,0.75-8.01c0-14.2-9.51-22.96-27.19-22.96c-13.44,0-27.19,5.74-36.25,15.41l-22.51-24.92
					c16.92-17.22,37.76-24.47,62.99-24.47C727.79,77.17,752.71,97.86,752.71,128.82z M703.92,182.44l1.96-10.57h-18.73
					c-29,0-43.05,7.85-43.05,23.86c0,11.93,7.4,18.88,20.24,18.88C684.14,214.62,700.45,201.33,703.92,182.44z"/>
			</g>
		</g>
	</g>
	<g>
		<path class="st0" d="M32.77,325.11c-1.6,0-2.93-0.21-3.98-0.62v-5.08c1.14,0.36,2.16,0.54,3.05,0.54c2.39,0,3.97-1.83,4.73-5.48
			l5.8-27.32h-4.79l0.56-2.83l5.19-2.03l0.56-2.46c0.78-3.53,1.98-6.04,3.6-7.53c1.61-1.49,3.9-2.23,6.86-2.23
			c2.05,0,3.93,0.38,5.64,1.15l-1.63,4.71c-1.32-0.5-2.53-0.75-3.64-0.75c-1.23,0-2.21,0.38-2.95,1.15s-1.31,2.02-1.7,3.77
			l-0.48,2.3h6.12l-0.99,4.76H48.6l-5.96,28.15c-0.71,3.37-1.88,5.84-3.5,7.43C37.51,324.32,35.39,325.11,32.77,325.11z"/>
		<path class="st0" d="M70.65,312.5c-3.51,0-6.25-0.99-8.22-2.97c-1.97-1.98-2.95-4.74-2.95-8.29c0-3.53,0.69-6.81,2.07-9.85
			s3.25-5.39,5.61-7.04s5-2.49,7.93-2.49c2.87,0,5.1,0.65,6.7,1.94s2.39,3.12,2.39,5.49c0,3.24-1.48,5.78-4.45,7.61
			c-2.97,1.83-7.2,2.74-12.68,2.74H65.9l-0.05,0.83v0.78c0,1.98,0.5,3.53,1.51,4.65s2.51,1.68,4.5,1.68c1.28,0,2.56-0.17,3.82-0.51
			c1.27-0.34,2.76-0.92,4.49-1.74v5c-1.71,0.78-3.28,1.34-4.72,1.67C74.01,312.33,72.42,312.5,70.65,312.5z M74.71,286.67
			c-1.71,0-3.32,0.77-4.83,2.3c-1.51,1.53-2.59,3.55-3.25,6.07h0.78c3.35,0,5.97-0.48,7.86-1.43s2.83-2.3,2.83-4.05
			c0-0.91-0.29-1.62-0.86-2.13C76.68,286.93,75.84,286.67,74.71,286.67z"/>
		<path class="st0" d="M99.76,312.5c-2.51,0-4.5-0.9-5.96-2.71s-2.19-4.35-2.19-7.63c0-3.6,0.62-6.97,1.86-10.1
			c1.24-3.14,2.94-5.62,5.12-7.45c2.17-1.83,4.56-2.74,7.16-2.74c1.73,0,3.22,0.41,4.46,1.22c1.25,0.81,2.22,1.99,2.91,3.54h0.28
			l1.66-4.22h4.81l-6.31,29.57h-4.87l0.56-4.71h-0.16C106.28,310.75,103.17,312.5,99.76,312.5z M102.06,307.42
			c1.46,0,2.9-0.69,4.3-2.07c1.41-1.38,2.57-3.23,3.47-5.55c0.91-2.32,1.36-4.85,1.36-7.59c0-1.57-0.42-2.83-1.26-3.78
			S108,287,106.64,287c-1.52,0-2.94,0.69-4.28,2.06s-2.41,3.24-3.21,5.6s-1.2,4.81-1.2,7.34c0,1.82,0.36,3.18,1.08,4.08
			C99.78,306.97,100.78,307.42,102.06,307.42z"/>
		<path class="st0" d="M136.36,307.42c1.21,0,2.56-0.28,4.04-0.83v4.76c-0.62,0.3-1.47,0.57-2.54,0.8s-2.14,0.35-3.21,0.35
			c-4.88,0-7.33-2.2-7.33-6.6c0-1.02,0.14-2.18,0.43-3.5l3.24-15.24h-4.33l0.56-2.94l5.08-2.19l3.45-6.2h3.9l-1.39,6.58h7.46
			l-1.04,4.76h-7.4l-3.26,15.29c-0.23,0.98-0.35,1.8-0.35,2.46c0,0.77,0.22,1.38,0.67,1.83
			C134.77,307.19,135.45,307.42,136.36,307.42z"/>
		<path class="st0" d="M161.22,282.4l-3.45,16.31c-0.55,2.51-0.83,4.23-0.83,5.16c0,2.37,1.13,3.55,3.39,3.55
			c1.28,0,2.56-0.51,3.82-1.52s2.39-2.46,3.37-4.34c0.98-1.88,1.74-4.09,2.27-6.62l2.65-12.54h6.23l-6.23,29.57h-4.95l0.56-5.48
			h-0.21c-1.46,2.07-2.99,3.59-4.57,4.56c-1.59,0.97-3.3,1.46-5.13,1.46c-2.39,0-4.23-0.68-5.53-2.03s-1.95-3.3-1.95-5.83
			c0-1.12,0.11-2.23,0.32-3.33c0.21-1.1,0.43-2.2,0.64-3.3l3.29-15.61L161.22,282.4L161.22,282.4z"/>
		<path class="st0" d="M204.68,281.86c1.1,0,2.07,0.11,2.89,0.32l-1.36,5.85c-0.96-0.25-1.87-0.37-2.73-0.37
			c-2.25,0-4.25,1.01-6.01,3.02s-2.99,4.65-3.69,7.91l-2.83,13.37h-6.31l6.31-29.57h4.92l-0.56,5.48h0.24
			c1.48-2.14,2.96-3.68,4.44-4.61C201.46,282.33,203.03,281.86,204.68,281.86z"/>
		<path class="st0" d="M216.69,311.96h-6.31l6.31-29.57h6.28L216.69,311.96z M217.94,275.12c0-1.21,0.35-2.19,1.04-2.94
			s1.67-1.12,2.94-1.12c0.94,0,1.71,0.24,2.3,0.71c0.59,0.47,0.88,1.19,0.88,2.15c0,1.27-0.36,2.26-1.07,2.99
			c-0.71,0.73-1.65,1.1-2.81,1.1c-0.94,0-1.73-0.23-2.35-0.69C218.25,276.85,217.94,276.12,217.94,275.12z"/>
		<path class="st0" d="M246.33,311.96l3.8-17.96c0.32-1.6,0.48-2.77,0.48-3.5c0-2.33-1.15-3.5-3.45-3.5c-1.28,0-2.55,0.51-3.8,1.52
			s-2.37,2.48-3.37,4.4c-1,1.92-1.75,4.09-2.25,6.51l-2.62,12.54h-6.31l6.31-29.57h4.92l-0.56,5.48h0.24c1.48-2.1,3-3.63,4.57-4.58
			s3.27-1.43,5.11-1.43c2.39,0,4.24,0.68,5.55,2.03c1.31,1.35,1.96,3.28,1.96,5.77c0,1.23-0.21,2.84-0.62,4.84l-3.66,17.46h-6.3
			V311.96z"/>
		<path class="st0" d="M293.81,282.4l-0.83,3.66l-5.13,0.88c0.5,1.03,0.75,2.25,0.75,3.66c0,3.44-1.06,6.17-3.18,8.19
			s-4.96,3.03-8.53,3.03c-0.93,0-1.75-0.07-2.46-0.21c-1.98,0.71-2.97,1.64-2.97,2.78c0,0.68,0.28,1.14,0.84,1.39
			s1.38,0.45,2.45,0.59l3.39,0.43c3.14,0.39,5.38,1.17,6.74,2.34c1.35,1.17,2.03,2.84,2.03,5.01c0,3.49-1.35,6.19-4.04,8.1
			s-6.51,2.86-11.47,2.86c-3.62,0-6.42-0.67-8.41-2c-1.99-1.34-2.98-3.17-2.98-5.51c0-1.84,0.62-3.42,1.86-4.76s3.23-2.47,5.97-3.39
			c-1.36-0.8-2.03-1.93-2.03-3.4c0-1.23,0.41-2.29,1.24-3.19s2.13-1.77,3.92-2.61c-2.41-1.44-3.61-3.69-3.61-6.74
			c0-3.49,1.09-6.31,3.27-8.45s5.07-3.21,8.65-3.21c1.43,0,2.85,0.18,4.28,0.54h10.25V282.4z M271.91,311.48
			c-2,0.32-3.53,0.95-4.6,1.9c-1.07,0.94-1.6,2.11-1.6,3.5c0,1.16,0.49,2.08,1.48,2.77c0.99,0.69,2.5,1.03,4.53,1.03
			c2.9,0,5.18-0.48,6.82-1.44s2.46-2.34,2.46-4.14c0-0.91-0.4-1.62-1.2-2.14c-0.8-0.52-2.21-0.88-4.22-1.1L271.91,311.48z
			 M279.13,286.06c-1.16,0-2.17,0.34-3.05,1.03c-0.87,0.69-1.55,1.62-2.03,2.81s-0.72,2.48-0.72,3.89c0,1.27,0.32,2.24,0.95,2.93
			s1.54,1.03,2.71,1.03c1.16,0,2.16-0.35,3.01-1.04c0.85-0.7,1.51-1.65,1.98-2.86c0.47-1.21,0.71-2.54,0.71-3.98
			C282.69,287.32,281.5,286.06,279.13,286.06z"/>
		<path class="st0" d="M331.55,311.96l3.8-17.96c0.32-1.6,0.48-2.77,0.48-3.5c0-2.33-1.15-3.5-3.45-3.5c-1.28,0-2.55,0.51-3.8,1.52
			c-1.25,1.02-2.37,2.48-3.37,4.4c-1,1.92-1.75,4.09-2.25,6.51l-2.62,12.54h-6.31l6.31-29.57h4.92l-0.56,5.48h0.24
			c1.48-2.1,3-3.63,4.57-4.58s3.27-1.43,5.11-1.43c2.39,0,4.24,0.68,5.55,2.03s1.96,3.28,1.96,5.77c0,1.23-0.21,2.84-0.61,4.84
			l-3.66,17.46h-6.31V311.96z"/>
		<path class="st0" d="M362.16,312.5c-3.51,0-6.25-0.99-8.22-2.97s-2.95-4.74-2.95-8.29c0-3.53,0.69-6.81,2.07-9.85
			s3.25-5.39,5.61-7.04s5-2.49,7.93-2.49c2.87,0,5.1,0.65,6.7,1.94s2.39,3.12,2.39,5.49c0,3.24-1.48,5.78-4.45,7.61
			c-2.97,1.83-7.2,2.74-12.68,2.74h-1.16l-0.05,0.83v0.78c0,1.98,0.5,3.53,1.51,4.65s2.51,1.68,4.5,1.68c1.28,0,2.56-0.17,3.82-0.51
			c1.27-0.34,2.76-0.92,4.49-1.74v5c-1.71,0.78-3.28,1.34-4.72,1.67C365.52,312.33,363.92,312.5,362.16,312.5z M366.22,286.67
			c-1.71,0-3.32,0.77-4.83,2.3c-1.51,1.53-2.59,3.55-3.25,6.07h0.78c3.35,0,5.97-0.48,7.86-1.43c1.89-0.95,2.83-2.3,2.83-4.05
			c0-0.91-0.29-1.62-0.86-2.13C368.19,286.93,367.35,286.67,366.22,286.67z"/>
		<path class="st0" d="M403.16,311.96l-0.51-16.76l-0.03-1.87l0.08-5.35c-0.45,1.1-0.9,2.22-1.38,3.34c-0.47,1.12-3.55,8-9.24,20.64
			h-7l-1.26-29.57h5.91l0.35,17.27c-0.04,1.55-0.13,3.73-0.29,6.55h0.16c1.18-3.14,2.15-5.56,2.91-7.27l7.43-16.55h6.79l0.51,16.15
			l0.03,1.42l-0.08,6.26h0.16c0.3-0.89,0.81-2.3,1.52-4.24s1.28-3.39,1.7-4.37s2.66-6.05,6.72-15.21h6.52l-13.85,29.57h-7.15V311.96
			z"/>
		<path class="st0" d="M464.35,281.86c3.92,0,6.18,2.09,6.79,6.28h0.21c1.34-2.07,2.86-3.63,4.56-4.69s3.47-1.59,5.31-1.59
			c2.37,0,4.17,0.68,5.41,2.04s1.86,3.28,1.86,5.76c0,1.14-0.2,2.75-0.59,4.84l-3.74,17.46h-6.28L481.7,294
			c0.34-1.69,0.51-2.88,0.51-3.56c0-2.3-1.08-3.45-3.23-3.45c-1.92,0-3.72,1.11-5.39,3.31c-1.67,2.21-2.88,5.14-3.65,8.79
			l-2.7,12.86h-6.28l3.82-17.96c0.3-1.46,0.45-2.59,0.45-3.4c0-2.41-1.04-3.61-3.13-3.61c-1.96,0-3.77,1.13-5.44,3.39
			s-2.9,5.28-3.7,9.04l-2.62,12.54h-6.31l6.31-29.57h4.92l-0.56,5.48h0.24C457.58,283.87,460.72,281.86,464.35,281.86z"/>
		<path class="st0" d="M508.49,312.5c-3.51,0-6.25-0.99-8.22-2.97s-2.95-4.74-2.95-8.29c0-3.53,0.69-6.81,2.07-9.85
			s3.25-5.39,5.61-7.04s5-2.49,7.93-2.49c2.87,0,5.1,0.65,6.7,1.94c1.59,1.29,2.39,3.12,2.39,5.49c0,3.24-1.48,5.78-4.45,7.61
			c-2.97,1.83-7.2,2.74-12.68,2.74h-1.15l-0.05,0.83v0.78c0,1.98,0.5,3.53,1.51,4.65s2.51,1.68,4.5,1.68c1.28,0,2.56-0.17,3.82-0.51
			s2.76-0.92,4.49-1.74v5c-1.71,0.78-3.28,1.34-4.72,1.67C511.85,312.33,510.25,312.5,508.49,312.5z M512.55,286.67
			c-1.71,0-3.32,0.77-4.83,2.3c-1.51,1.53-2.59,3.55-3.25,6.07h0.78c3.35,0,5.97-0.48,7.86-1.43c1.89-0.95,2.83-2.3,2.83-4.05
			c0-0.91-0.29-1.62-0.86-2.13C514.52,286.93,513.67,286.67,512.55,286.67z"/>
		<path class="st0" d="M539.1,307.42c1.21,0,2.56-0.28,4.04-0.83v4.76c-0.62,0.3-1.47,0.57-2.54,0.8s-2.14,0.35-3.21,0.35
			c-4.88,0-7.32-2.2-7.32-6.6c0-1.02,0.14-2.18,0.43-3.5l3.23-15.24h-4.33l0.56-2.94l5.08-2.19l3.45-6.2h3.9l-1.39,6.58h7.46
			l-1.04,4.76h-7.4l-3.26,15.29c-0.23,0.98-0.35,1.8-0.35,2.46c0,0.77,0.22,1.38,0.67,1.83
			C537.51,307.19,538.19,307.42,539.1,307.42z"/>
		<path class="st0" d="M569.19,311.96l3.8-17.96c0.32-1.6,0.48-2.74,0.48-3.4c0-2.41-1.15-3.61-3.45-3.61c-2,0-3.86,1.11-5.6,3.34
			s-3.01,5.28-3.81,9.14l-2.62,12.48h-6.31l8.82-41.6h6.28l-1.52,7c-0.48,2.25-1.13,4.86-1.95,7.83l-0.51,2h0.21
			c1.5-1.89,3-3.25,4.5-4.09s3.09-1.26,4.74-1.26c2.42,0,4.28,0.69,5.57,2.07s1.94,3.35,1.94,5.92c0,1.35-0.21,2.91-0.61,4.65
			l-3.72,17.46h-6.24V311.96z"/>
		<path class="st0" d="M614.96,293.46c0,3.6-0.65,6.88-1.95,9.82c-1.3,2.95-3.09,5.21-5.36,6.79c-2.27,1.58-4.89,2.37-7.85,2.37
			c-3.42,0-6.14-1.02-8.15-3.06s-3.02-4.82-3.02-8.33c0-3.55,0.64-6.8,1.91-9.76c1.27-2.96,3.06-5.26,5.36-6.91s4.95-2.47,7.97-2.47
			c3.48,0,6.19,1.03,8.15,3.1C613.98,287.08,614.96,289.9,614.96,293.46z M608.63,293.2c0-1.91-0.44-3.4-1.31-4.48
			s-2.12-1.62-3.74-1.62c-1.66,0-3.14,0.64-4.45,1.91c-1.31,1.27-2.33,3-3.05,5.19c-0.72,2.18-1.08,4.51-1.08,6.99
			c0,1.98,0.44,3.49,1.32,4.54s2.19,1.58,3.92,1.58c1.6,0,3.05-0.61,4.33-1.82s2.28-2.91,2.99-5.09
			C608.27,298.22,608.63,295.81,608.63,293.2z"/>
		<path class="st0" d="M637.55,281.86c3.19,0,5.58,1.59,7.16,4.76h0.21c0.23-2.6,0.56-4.83,0.99-6.68l2.03-9.57h6.23l-8.82,41.6
			h-4.92l0.51-4.71h-0.19c-1.57,1.89-3.08,3.23-4.54,4.04c-1.46,0.8-3.01,1.2-4.65,1.2c-2.55,0-4.54-0.9-5.99-2.71
			c-1.44-1.81-2.17-4.37-2.17-7.69c0-3.65,0.64-7.07,1.91-10.24s2.98-5.63,5.12-7.38C632.58,282.73,634.95,281.86,637.55,281.86z
			 M633.97,307.42c1.46,0,2.91-0.73,4.34-2.19s2.58-3.37,3.45-5.72s1.3-4.73,1.3-7.14c0-1.62-0.39-2.92-1.16-3.9
			c-0.78-0.98-1.96-1.47-3.54-1.47c-1.51,0-2.93,0.69-4.25,2.06s-2.37,3.25-3.15,5.64c-0.79,2.39-1.18,4.82-1.18,7.3
			C629.77,305.61,631.17,307.42,633.97,307.42z"/>
		<path class="st0" d="M677.22,302.87c0,3.08-1.05,5.46-3.15,7.12c-2.1,1.67-5.03,2.5-8.77,2.5c-3.39,0-6.26-0.6-8.61-1.79v-5.43
			c2.73,1.6,5.51,2.41,8.34,2.41c1.73,0,3.13-0.36,4.2-1.07s1.6-1.68,1.6-2.91c0-0.91-0.31-1.69-0.92-2.34
			c-0.62-0.65-1.88-1.52-3.78-2.61c-2.23-1.19-3.8-2.41-4.72-3.65c-0.92-1.24-1.38-2.7-1.38-4.4c0-2.76,0.95-4.93,2.86-6.5
			s4.48-2.35,7.73-2.35c3.49,0,6.58,0.75,9.25,2.25l-2.03,4.7c-2.5-1.35-4.87-2.03-7.11-2.03c-1.3,0-2.36,0.29-3.17,0.88
			s-1.22,1.41-1.22,2.46c0,0.8,0.29,1.51,0.88,2.14c0.59,0.62,1.79,1.43,3.61,2.41c1.87,1.05,3.2,1.95,3.98,2.7
			c0.78,0.75,1.38,1.56,1.79,2.45C677.01,300.69,677.22,301.71,677.22,302.87z"/>
		<path class="st0" d="M702.85,309.39c0-1.43,0.41-2.58,1.22-3.47c0.81-0.89,1.97-1.34,3.49-1.34c1.02,0,1.83,0.29,2.43,0.87
			c0.61,0.58,0.91,1.41,0.91,2.5c0,1.41-0.42,2.55-1.26,3.42s-1.93,1.31-3.29,1.31c-1.1,0-1.96-0.3-2.58-0.9
			C703.16,311.19,702.85,310.39,702.85,309.39z M710.95,300.09h-4.71l4.49-27.21H718L710.95,300.09z"/>
	</g>
	<path class="st1" d="M383.43,117.98c-0.6-0.71-1.12-1.43-1.5-1.85c-0.15-0.16-0.25-0.43-0.24-0.64c0.18-3.71,0.59-7.46,0.59-11.17
		c0.05-0.99-0.11-1.94-0.66-2.78c-1.09-1.68-2.94-1.8-4.77-1.73c-1.94,0.08-3.89,0.16-5.83,0.25c-1,0.04-2,0.09-2.99,0.13
		c-0.65,0.03-1.6,0.25-2.11-0.28c-1.08-1.12-2.27-2.17-3.25-3.38c-0.74-0.91-0.55-2.31,0.85-2.39c3.13,0,6.31-0.35,9.43-0.52
		c4.68-0.26,9.36-0.52,14.04-0.78c0.69-0.04,1.48-0.04,1.97,0.45c0.58,0.59,0.43,1.5,0.38,2.24c-0.08,1.09-0.15,2.19-0.23,3.28
		c-0.16,2.24-0.32,4.48-0.49,6.72c-0.32,4.38-0.6,8.75-0.9,13.13c-0.04,0.61-0.36,0.99-0.88,1.19
		C385.69,120.34,384.45,119.18,383.43,117.98z"/>
</g>
</svg>
