<svg width="19" height="19" viewBox="0 0 19 19" fill="none" xmlns="http://www.w3.org/2000/svg">
<path d="M17.7997 5.48277C17.755 5.31534 17.6475 5.17531 17.4974 5.08862L16.9513 4.77334C16.8011 4.68665 16.6262 4.6636 16.4586 4.70854C16.2912 4.75333 16.1511 4.86075 16.0644 5.01093L15.7386 5.57525C15.6003 5.51031 15.445 5.49596 15.2956 5.53596C15.1282 5.5809 14.9881 5.68832 14.9014 5.83849L14.8809 5.87401V3.46973C14.8809 2.70232 14.2567 2.07812 13.4893 2.07812H11.4594C11.414 1.764 11.1438 1.52148 10.8174 1.52148H9.87109V0.834961C9.87109 0.374573 9.49652 0 9.03613 0H6.99512C6.53473 0 6.16016 0.374573 6.16016 0.834961V1.52148H5.21387C4.88742 1.52148 4.61707 1.764 4.57185 2.07812H2.54199C1.77458 2.07812 1.15039 2.70232 1.15039 3.46973V17.6084C1.15039 18.3758 1.77458 19 2.54199 19H11.2273C11.381 19 11.5056 18.8755 11.5056 18.7217C11.5056 18.5679 11.381 18.4434 11.2273 18.4434H2.54199C2.0816 18.4434 1.70703 18.0688 1.70703 17.6084V3.46973C1.70703 3.00934 2.0816 2.63477 2.54199 2.63477H4.56445V3.98926C4.56445 4.34731 4.85582 4.63867 5.21387 4.63867H10.8174C11.1754 4.63867 11.4668 4.34731 11.4668 3.98926V3.72949H13.2295V8.73433L10.3974 13.6396C10.2951 13.8167 10.2487 14.0182 10.2634 14.2223L10.3874 15.9609C10.3983 16.113 10.4833 16.25 10.6146 16.3274C10.6871 16.37 10.7684 16.3916 10.8501 16.3916C10.9165 16.3916 10.9831 16.3773 11.0451 16.3486L12.6452 15.6065C12.8368 15.5177 12.9939 15.374 13.0995 15.1912L13.2295 14.9661V17.3486H2.80176V3.72949H3.54395C3.6976 3.72949 3.82227 3.60497 3.82227 3.45117C3.82227 3.29737 3.6976 3.17285 3.54395 3.17285H2.70898C2.45313 3.17285 2.24512 3.38087 2.24512 3.63672V17.4414C2.24512 17.6973 2.45313 17.9053 2.70898 17.9053H13.3223C13.578 17.9053 13.7861 17.6973 13.7861 17.4414V14.0018L14.3242 13.0699V17.6084C14.3242 18.0688 13.9496 18.4434 13.4893 18.4434H12.526C12.3724 18.4434 12.2477 18.5679 12.2477 18.7217C12.2477 18.8753 12.3724 19 12.526 19H13.4893C14.2565 19 14.8809 18.3757 14.8809 17.6084V12.1058L17.2289 8.03882L17.5998 7.39636C17.6865 7.24619 17.7096 7.07122 17.6646 6.90379C17.6246 6.75434 17.5346 6.62721 17.4091 6.5398L17.7349 5.97548C17.8216 5.8253 17.8447 5.65034 17.7997 5.48277ZM16.5464 5.28925C16.5719 5.24503 16.6286 5.22981 16.673 5.25533L17.219 5.57061C17.2479 5.58728 17.2585 5.61308 17.2622 5.62685C17.2659 5.64077 17.2696 5.66817 17.253 5.69716L16.9284 6.25916L16.222 5.85139L16.5464 5.28925ZM15.3834 6.11681C15.4001 6.08797 15.4259 6.07738 15.4397 6.07376C15.4536 6.06985 15.481 6.06622 15.5098 6.08289L17.0838 6.99164C17.1128 7.00831 17.1234 7.03397 17.127 7.04788C17.1308 7.06165 17.1344 7.0892 17.1177 7.11804L16.8859 7.51943L15.1518 6.5182L15.3834 6.11681ZM6.7168 0.834961C6.7168 0.68145 6.84161 0.556641 6.99512 0.556641H9.03613C9.18964 0.556641 9.31445 0.68145 9.31445 0.834961V1.52148H6.7168V0.834961ZM10.9102 3.98926C10.9102 4.04043 10.8686 4.08203 10.8174 4.08203H5.21387C5.1627 4.08203 5.12109 4.04043 5.12109 3.98926V2.1709C5.12109 2.11973 5.1627 2.07812 5.21387 2.07812H10.8174C10.8686 2.07812 10.9102 2.11973 10.9102 2.1709V3.98926ZM13.3223 3.17285H11.4668V2.63477H13.4893C13.9496 2.63477 14.3242 3.00934 14.3242 3.46973V6.83827L13.7861 7.77021V3.63672C13.7861 3.38087 13.5781 3.17285 13.3223 3.17285ZM14.8735 7.00034L16.6076 8.00156L13.1956 13.9115L11.4613 12.9103L14.8735 7.00034ZM12.6175 14.9129C12.5695 14.996 12.498 15.0612 12.4111 15.1015V15.1016L10.9331 15.787L10.8185 14.1827C10.8119 14.09 10.833 13.9985 10.8796 13.918L11.183 13.3923L12.9173 14.3935L12.6175 14.9129Z" fill="#1B2A55"/>
<path d="M4.02516 15.528C4.07807 15.5751 4.14417 15.5981 4.20983 15.5981C4.28666 15.5981 4.36305 15.5665 4.41799 15.5046L4.96985 14.8833L5.39704 15.3929C5.48271 15.4952 5.60839 15.5555 5.74175 15.5587C5.87526 15.561 6.0034 15.5074 6.09371 15.4092L6.60745 14.8514L7.17684 15.4959C7.27875 15.6112 7.45458 15.622 7.56968 15.5203C7.68492 15.4185 7.69579 15.2427 7.59403 15.1274L6.95651 14.4058C6.86968 14.3076 6.74472 14.2504 6.61368 14.2491C6.61208 14.249 6.61049 14.249 6.6089 14.249C6.47945 14.249 6.35536 14.3034 6.26766 14.3986L5.75581 14.9544L5.32732 14.4434C5.24063 14.34 5.1135 14.2796 4.9784 14.2775C4.8433 14.2745 4.71472 14.3325 4.62514 14.4334L4.00196 15.135C3.89977 15.2499 3.9102 15.4259 4.02516 15.528Z" fill="#1B2A55"/>
<path d="M12.2368 6.1416C12.2368 5.9878 12.1122 5.86328 11.9585 5.86328H4.0542C3.90054 5.86328 3.77588 5.9878 3.77588 6.1416C3.77588 6.2954 3.90054 6.41992 4.0542 6.41992H11.9585C12.1122 6.41992 12.2368 6.2954 12.2368 6.1416Z" fill="#1B2A55"/>
<path d="M4.09131 7.9043H7.39404C7.5477 7.9043 7.67236 7.77978 7.67236 7.62598C7.67236 7.47218 7.5477 7.34766 7.39404 7.34766H4.09131C3.93765 7.34766 3.81299 7.47218 3.81299 7.62598C3.81299 7.77978 3.93765 7.9043 4.09131 7.9043Z" fill="#1B2A55"/>
<path d="M10.27 7.62598C10.27 7.47218 10.1454 7.34766 9.9917 7.34766H8.69287C8.53922 7.34766 8.41455 7.47218 8.41455 7.62598C8.41455 7.77978 8.53922 7.9043 8.69287 7.9043H9.9917C10.1454 7.9043 10.27 7.77978 10.27 7.62598Z" fill="#1B2A55"/>
<path d="M4.09131 9.38867H6.76318C6.91684 9.38867 7.0415 9.26415 7.0415 9.11035C7.0415 8.95655 6.91684 8.83203 6.76318 8.83203H4.09131C3.93765 8.83203 3.81299 8.95655 3.81299 9.11035C3.81299 9.26415 3.93765 9.38867 4.09131 9.38867Z" fill="#1B2A55"/>
<path d="M9.2124 8.83203H7.95068C7.79703 8.83203 7.67236 8.95655 7.67236 9.11035C7.67236 9.26415 7.79703 9.38867 7.95068 9.38867H9.2124C9.36606 9.38867 9.49072 9.26415 9.49072 9.11035C9.49072 8.95655 9.36606 8.83203 9.2124 8.83203Z" fill="#1B2A55"/>
<path d="M4.09131 10.873H6.021C6.17465 10.873 6.29932 10.7485 6.29932 10.5947C6.29932 10.4409 6.17465 10.3164 6.021 10.3164H4.09131C3.93765 10.3164 3.81299 10.4409 3.81299 10.5947C3.81299 10.7485 3.93765 10.873 4.09131 10.873Z" fill="#1B2A55"/>
<path d="M9.49072 10.5947C9.49072 10.4409 9.36606 10.3164 9.2124 10.3164H7.2085C7.05484 10.3164 6.93018 10.4409 6.93018 10.5947C6.93018 10.7485 7.05484 10.873 7.2085 10.873H9.2124C9.36606 10.873 9.49072 10.7485 9.49072 10.5947Z" fill="#1B2A55"/>
<path d="M4.09131 12.3574H6.021C6.17465 12.3574 6.29932 12.2329 6.29932 12.0791C6.29932 11.9253 6.17465 11.8008 6.021 11.8008H4.09131C3.93765 11.8008 3.81299 11.9253 3.81299 12.0791C3.81299 12.2329 3.93765 12.3574 4.09131 12.3574Z" fill="#1B2A55"/>
</svg>
