<?xml version="1.0" encoding="utf-8"?>
<!-- Generator: Adobe Illustrator 23.0.1, SVG Export Plug-In . SVG Version: 6.00 Build 0)  -->
<svg version="1.1" id="Layer_1" xmlns="http://www.w3.org/2000/svg" xmlns:xlink="http://www.w3.org/1999/xlink" x="0px" y="0px"
	 viewBox="0 0 361 365" style="enable-background:new 0 0 361 365;" xml:space="preserve">
<style type="text/css">
	.st0{fill:#FEC20F;}
</style>
<path class="st0" d="M276.86,326.84c-7.51-8.86-14.03-17.92-18.72-23.09c-1.82-2-3.17-5.39-3.03-8.06
	c2.3-46.37,7.41-93.31,7.41-139.72c0.68-12.41-1.39-24.24-8.22-34.75c-13.66-21-36.71-22.54-59.63-21.6
	c-24.31,0.99-48.61,2.04-72.92,3.11c-12.48,0.55-24.96,1.08-37.44,1.67c-8.19,0.39-19.99,3.18-26.44-3.52
	C44.4,86.9,29.47,73.72,17.23,58.62C7.97,47.2,10.33,29.7,27.83,28.74c39.15,0,78.84-4.32,117.94-6.47
	c58.51-3.22,117.01-6.45,175.51-9.69c8.67-0.48,18.49-0.54,24.58,5.66c7.22,7.36,5.4,18.73,4.76,28.02
	c-0.94,13.69-1.88,27.37-2.84,41.06c-1.98,28.01-4.03,56.02-6.07,84.03c-3.98,54.72-7.48,109.46-11.25,164.2
	c-0.53,7.65-4.51,12.33-11.02,14.94C305.09,356.24,289.55,341.81,276.86,326.84z"/>
</svg>
