<svg width="32" height="30" viewBox="0 0 32 30" fill="none" xmlns="http://www.w3.org/2000/svg">
<g clip-path="url(#clip0)">
<path d="M19.1467 24.6875H13.4634L14.4321 22.6875L15.2717 20.8125H17.3384L18.178 22.6875L19.1467 24.6875Z" fill="#FF7058"/>
<path d="M22.7635 24.6875H9.84685C9.13642 24.6875 8.55518 25.25 8.55518 25.9375V30H23.9906V25.9375C24.0552 25.25 23.474 24.6875 22.7635 24.6875Z" fill="#FEC20E"/>
<path d="M18.178 22.6875C17.6614 22.9375 17.1447 23.1875 16.628 23.375L16.3051 23.4375L15.9822 23.3125C15.4655 23.125 14.9488 22.875 14.4321 22.625L15.2717 20.75H17.2738L18.178 22.6875Z" fill="#F1543F"/>
<path d="M0.805176 3.4375V6.00001C0.805176 12.25 4.80936 17.625 10.4281 19.875C12.2364 20.6251 14.2385 21 16.3052 21C18.3719 21 20.374 20.6251 22.1823 19.875C27.8011 17.6251 31.8052 12.25 31.8052 6.00007V3.4375H0.805176ZM29.2218 6.00001C29.2218 9 28.1239 11.75 26.251 13.9375C23.8615 16.6875 20.3093 18.5 16.3052 18.5C12.3011 18.5 8.74896 16.75 6.35939 13.9375C4.55107 11.8125 3.38858 9 3.38858 6.00001V5.9375H29.1572V6.00001H29.2218Z" fill="#FFA901"/>
<path d="M26.3801 0H6.23009C5.77803 0 5.45508 0.374977 5.45508 0.750013C5.45508 1.1875 5.77796 1.56253 6.23009 1.56253H26.3801C26.8322 1.56253 27.1552 1.18756 27.1552 0.81252C27.1551 0.374977 26.8322 0 26.3801 0Z" fill="#FFA901"/>
<path d="M26.38 1.5625V8.3125C26.38 14.5625 22.3758 20.25 16.305 22.5C10.2342 20.1875 6.22998 14.5625 6.22998 8.25V1.5625H26.38Z" fill="#FEC20E"/>
<path d="M16.3055 4.375L17.6617 8.37497H21.9888L18.5013 10.875L19.7929 14.875L16.3055 12.375L12.8179 14.875L14.1096 10.875L10.6221 8.37497H14.9492L16.3055 4.375Z" fill="white"/>
<path d="M26.3154 1.5625H6.22998V2.49997H26.3154V1.5625Z" fill="#FFC952"/>
</g>
<defs>
<clipPath id="clip0">
<rect x="0.805176" width="31" height="30" fill="white"/>
</clipPath>
</defs>
</svg>
