<svg width="20" height="29" viewBox="0 0 20 29" fill="none" xmlns="http://www.w3.org/2000/svg">
<path d="M3.23907 25.9623C3.20794 25.2009 3.23448 24.4736 3.19959 24.0105C3.18286 23.8314 3.25523 23.6069 3.36917 23.4768C5.38433 21.1803 7.57103 18.9748 9.46794 16.587C10.007 15.9752 10.3876 15.2826 10.4558 14.4629C10.5987 12.8285 9.44478 11.8126 8.20683 10.929C6.8915 9.99607 5.56959 9.05806 4.24915 8.13156C3.57178 7.64987 2.8893 7.17462 2.2185 6.69801C1.77616 6.38749 1.03961 6.04702 0.975571 5.44712C0.838751 4.17825 0.593882 2.89861 0.568771 1.62256C0.547931 0.661374 1.38855 -0.143277 2.34914 0.515642C4.40529 2.10391 6.67327 3.4923 8.80977 4.96608C12.0171 7.17354 15.2244 9.38097 18.4317 11.5884C18.9054 11.9128 19.4244 12.3137 19.4958 12.8777C19.5751 13.5517 19.0113 14.0613 18.6001 14.5122C17.9902 15.1731 17.3818 15.8456 16.7719 16.5065C15.5215 17.867 14.2711 19.2275 13.0141 20.5829C10.5644 23.2396 8.14613 25.9101 5.70958 28.5768C5.37141 28.9491 4.9669 29.0313 4.52304 28.8962C3.51705 28.628 3.29557 27.2522 3.23907 25.9623Z" fill="white"/>
</svg>
